<?xml version="1.0" standalone="no"?>
<svg xmlns:xlink="http://www.w3.org/1999/xlink" id="wave" style="transform:rotate(0deg); transition: 0.3s" viewBox="0 0 1440 490" version="1.1" xmlns="http://www.w3.org/2000/svg"><defs><linearGradient id="sw-gradient-0" x1="0" x2="0" y1="1" y2="0"><stop stop-color="rgba(64.938, 62, 243, 1)" offset="0%"/><stop stop-color="rgba(192.812, 116.571, 253.15, 1)" offset="100%"/></linearGradient></defs><path style="transform:translate(0, 0px); opacity:1" fill="url(#sw-gradient-0)" d="M0,0L80,57.2C160,114,320,229,480,245C640,261,800,180,960,147C1120,114,1280,131,1440,179.7C1600,229,1760,310,1920,359.3C2080,408,2240,425,2400,408.3C2560,392,2720,343,2880,326.7C3040,310,3200,327,3360,318.5C3520,310,3680,278,3840,261.3C4000,245,4160,245,4320,204.2C4480,163,4640,82,4800,98C4960,114,5120,229,5280,253.2C5440,278,5600,212,5760,179.7C5920,147,6080,147,6240,163.3C6400,180,6560,212,6720,228.7C6880,245,7040,245,7200,245C7360,245,7520,245,7680,204.2C7840,163,8000,82,8160,65.3C8320,49,8480,98,8640,138.8C8800,180,8960,212,9120,220.5C9280,229,9440,212,9600,171.5C9760,131,9920,65,10080,89.8C10240,114,10400,229,10560,228.7C10720,229,10880,114,11040,57.2C11200,0,11360,0,11440,0L11520,0L11520,490L11440,490C11360,490,11200,490,11040,490C10880,490,10720,490,10560,490C10400,490,10240,490,10080,490C9920,490,9760,490,9600,490C9440,490,9280,490,9120,490C8960,490,8800,490,8640,490C8480,490,8320,490,8160,490C8000,490,7840,490,7680,490C7520,490,7360,490,7200,490C7040,490,6880,490,6720,490C6560,490,6400,490,6240,490C6080,490,5920,490,5760,490C5600,490,5440,490,5280,490C5120,490,4960,490,4800,490C4640,490,4480,490,4320,490C4160,490,4000,490,3840,490C3680,490,3520,490,3360,490C3200,490,3040,490,2880,490C2720,490,2560,490,2400,490C2240,490,2080,490,1920,490C1760,490,1600,490,1440,490C1280,490,1120,490,960,490C800,490,640,490,480,490C320,490,160,490,80,490L0,490Z"/></svg>